<?xml version="1.0" standalone="no"?>
<!DOCTYPE svg PUBLIC "-//W3C//DTD SVG 20010904//EN"
 "http://www.w3.org/TR/2001/REC-SVG-20010904/DTD/svg10.dtd">
<svg version="1.0" xmlns="http://www.w3.org/2000/svg"
 width="260.000000pt" height="260.000000pt" viewBox="0 0 260.000000 260.000000"
 preserveAspectRatio="xMidYMid meet">
<metadata>
Created by potrace 1.14, written by Peter Selinger 2001-2017
</metadata>
<g transform="translate(0.000000,260.000000) scale(0.100000,-0.100000)"
fill="#000000" stroke="none">
<path d="M0 1300 l0 -1300 1300 0 1300 0 0 1300 0 1300 -1300 0 -1300 0 0
-1300z m648 325 c168 -22 252 -193 164 -334 -38 -63 -100 -92 -208 -99 l-84
-5 0 -93 0 -94 -64 0 c-46 0 -70 5 -85 18 -21 17 -21 22 -19 297 l3 280 29 13
c16 8 61 17 100 21 71 7 81 7 164 -4z m787 -6 c61 -15 95 -49 95 -92 0 -19 -8
-44 -17 -56 -17 -20 -20 -20 -58 -6 -47 17 -148 20 -176 5 -21 -12 -26 -45 -8
-56 6 -3 45 -19 88 -33 89 -32 154 -71 177 -106 40 -61 37 -154 -7 -217 -75
-104 -391 -110 -444 -7 -21 40 -19 64 9 96 l24 28 49 -24 c90 -44 204 -36 211
15 4 28 -10 38 -108 74 -112 41 -157 72 -181 123 -24 55 -24 101 2 154 36 75
111 111 232 112 38 1 88 -4 112 -10z m720 0 c61 -15 95 -49 95 -92 0 -19 -8
-44 -17 -56 -17 -20 -20 -20 -58 -6 -47 17 -148 20 -176 5 -21 -12 -26 -45 -8
-56 6 -3 45 -19 88 -33 89 -32 154 -71 177 -106 40 -61 37 -154 -7 -217 -75
-104 -391 -110 -444 -7 -21 40 -19 64 9 96 l24 28 49 -24 c90 -44 204 -36 211
15 4 28 -10 38 -108 74 -112 41 -157 72 -181 123 -24 55 -24 101 2 154 36 75
111 111 232 112 38 1 88 -4 112 -10z"/>
<path d="M520 1410 l0 -80 34 0 c84 0 127 45 104 110 -13 38 -35 50 -92 50
l-46 0 0 -80z"/>
</g>
</svg>
